<?xml version="1.0"?>
<svg version="1.1" xmlns="http://www.w3.org/2000/svg" width="230px" height="40px" style=""><path fill="#000000" d="M50.833984375,27.95703125q0-0.587890625,0.1982421875-1.736328125t0.560546875-2.5361328125t0.8681640625-2.84375t1.09375-2.6455078125t1.244140625-1.9482421875t1.3671875-0.7587890625q0.109375,0,0.30078125,0.013671875t0.3759765625,0.0546875t0.328125,0.1572265625t0.1435546875,0.2802734375q0,0.21875-0.2802734375,0.8818359375t-0.7041015625,1.599609375t-0.916015625,2.0849609375t-0.9091796875,2.37890625t-0.697265625,2.474609375t-0.2802734375,2.337890625q0,0.642578125,0.02734375,1.572265625t0.2666015625,1.763671875t0.7451171875,1.4423828125t1.44921875,0.6083984375q0.779296875,0,1.3466796875-0.396484375t0.9296875-1.0390625t0.560546875-1.4423828125t0.2939453125-1.626953125t0.123046875-1.5791015625t0.02734375-1.3125q0-0.314453125-0.041015625-0.7998046875t-0.2392578125-0.9501953125t-0.587890625-0.7998046875t-1.0595703125-0.3623046875q-0.314453125,0-0.6767578125,0.0546875t-0.65625,0.095703125t-0.4921875,0.041015625t-0.1708984375-0.109375q0.109375-0.341796875,0.4033203125-0.57421875t0.6767578125-0.3623046875t0.7587890625-0.1845703125t0.6220703125-0.0546875q1.1484375,0,1.8662109375,0.587890625t1.12109375,1.3466796875t0.546875,1.4697265625t0.1435546875,0.9296875q0,1.203125-0.2939453125,2.6591796875t-0.95703125,2.720703125t-1.708984375,2.10546875t-2.5361328125,0.8408203125q-1.3125,0-2.2763671875-0.57421875t-1.6064453125-1.4970703125t-0.970703125-2.0712890625t-0.328125-2.296875z M63.74939453125,27.95703125q0-0.587890625,0.1982421875-1.736328125t0.560546875-2.5361328125t0.8681640625-2.84375t1.09375-2.6455078125t1.244140625-1.9482421875t1.3671875-0.7587890625q0.109375,0,0.30078125,0.013671875t0.3759765625,0.0546875t0.328125,0.1572265625t0.1435546875,0.2802734375q0,0.21875-0.2802734375,0.8818359375t-0.7041015625,1.599609375t-0.916015625,2.0849609375t-0.9091796875,2.37890625t-0.697265625,2.474609375t-0.2802734375,2.337890625q0,0.642578125,0.02734375,1.572265625t0.2666015625,1.763671875t0.7451171875,1.4423828125t1.44921875,0.6083984375q0.779296875,0,1.3466796875-0.396484375t0.9296875-1.0390625t0.560546875-1.4423828125t0.2939453125-1.626953125t0.123046875-1.5791015625t0.02734375-1.3125q0-0.314453125-0.041015625-0.7998046875t-0.2392578125-0.9501953125t-0.587890625-0.7998046875t-1.0595703125-0.3623046875q-0.314453125,0-0.6767578125,0.0546875t-0.65625,0.095703125t-0.4921875,0.041015625t-0.1708984375-0.109375q0.109375-0.341796875,0.4033203125-0.57421875t0.6767578125-0.3623046875t0.7587890625-0.1845703125t0.6220703125-0.0546875q1.1484375,0,1.8662109375,0.587890625t1.12109375,1.3466796875t0.546875,1.4697265625t0.1435546875,0.9296875q0,1.203125-0.2939453125,2.6591796875t-0.95703125,2.720703125t-1.708984375,2.10546875t-2.5361328125,0.8408203125q-1.3125,0-2.2763671875-0.57421875t-1.6064453125-1.4970703125t-0.970703125-2.0712890625t-0.328125-2.296875z M81.99232421875,33.80859375q0.0546875-2.857421875,0.2392578125-5.701171875t0.3212890625-5.701171875q0.02734375-1.09375,0.02734375-1.9892578125t0.0888671875-1.5517578125t0.328125-1.0048828125t0.7998046875-0.3486328125q0.478515625,0,0.724609375,0.13671875t0.3759765625,0.3486328125t0.1572265625,0.478515625t0.02734375,0.5400390625q0,0.396484375,0.02734375,0.7861328125t0.02734375,0.7861328125q0,2.884765625-0.1572265625,5.755859375t-0.1572265625,5.783203125q0,0.423828125,0.013671875,0.8544921875t0.013671875,0.8818359375q0,0.1640625-0.150390625,0.2734375t-0.3759765625,0.1845703125t-0.478515625,0.1025390625t-0.4169921875,0.02734375q-0.19140625,0-0.4306640625-0.02734375t-0.46484375-0.1162109375t-0.3828125-0.2119140625t-0.1572265625-0.287109375z M82.75794921875,15.26953125q0-0.13671875,0.041015625-0.3076171875t0.095703125-0.3076171875q0.02734375-0.1640625,0.08203125-0.560546875t0.1982421875-0.7724609375t0.396484375-0.669921875t0.7177734375-0.2939453125l0.259765625,0q0.21875,0.0546875,0.4443359375,0.13671875t0.2255859375,0.396484375q0,0.13671875-0.013671875,0.259765625t-0.041015625,0.2734375q-0.109375,0.806640625-0.2119140625,1.271484375t-0.2392578125,0.7041015625t-0.3486328125,0.3076171875t-0.5400390625,0.095703125q-0.109375,0-0.2939453125-0.013671875t-0.35546875-0.068359375t-0.2939453125-0.1708984375t-0.123046875-0.2802734375z M87.183125,14.544921875q0-0.19140625,0.2666015625-0.2939453125t0.3486328125-0.1025390625l0.505859375-0.08203125q0.505859375-0.08203125,1.025390625-0.1435546875t1.01171875-0.1162109375q1.736328125-0.21875,3.47265625-0.4306640625t3.5-0.2119140625q0.13671875,0,0.3759765625,0.013671875t0.478515625,0.0751953125t0.41015625,0.1708984375t0.1708984375,0.30078125q0,0.13671875-0.1298828125,0.2392578125t-0.3076171875,0.1572265625t-0.3623046875,0.068359375t-0.2939453125,0.013671875l-0.2392578125,0t-0.2392578125-0.0546875q-0.724609375,0-1.4287109375,0.068359375t-1.4287109375,0.123046875q0.19140625,0.21875,0.205078125,0.615234375t0.02734375,0.68359375q0,4.83984375,0.068359375,9.625t0.123046875,9.666015625l0,0.02734375q-0.451171875,0.396484375-0.7724609375,0.505859375t-0.6494140625,0.109375q-0.314453125,0-0.6357421875-0.1162109375t-0.7724609375-0.4990234375l0-0.02734375l0.109375-10.732421875q0-1.06640625-0.02734375-2.3515625t-0.02734375-2.6044921875t0.041015625-2.5498046875t0.21875-2.146484375q-0.806640625,0.08203125-1.708984375,0.24609375q-0.779296875,0.13671875-1.490234375,0.13671875l-0.24609375,0q-0.0546875,0-0.3212890625,0.013671875t-0.546875-0.013671875t-0.505859375-0.109375t-0.2255859375-0.2734375z M106.0276171875,31.40234375q0-0.478515625,0.328125-0.6083984375t0.7109375-0.1298828125q0.669921875,0,1.134765625,0.6015625t0.8818359375,1.3193359375t0.8271484375,1.3193359375t0.970703125,0.6015625q0.423828125,0,0.7724609375-0.2119140625t0.6015625-0.533203125t0.3896484375-0.724609375t0.13671875-0.7998046875q0-1.0390625-0.4169921875-2.146484375t-1.06640625-2.283203125t-1.3740234375-2.40625t-1.3671875-2.501953125t-1.06640625-2.5908203125t-0.423828125-2.6591796875q0-2.009765625,1.203125-3.1171875t3.171875-1.107421875q0.669921875,0,1.353515625,0.19140625t1.2578125,0.57421875t0.9365234375,0.943359375t0.3623046875,1.3125q0,0.24609375-0.3623046875,0.3212890625t-0.5263671875,0.0751953125q-0.24609375,0-0.533203125-0.0615234375t-0.369140625-0.3349609375t-0.232421875-0.62890625t-0.3759765625-0.6630859375t-0.533203125-0.533203125t-0.6767578125-0.2255859375q-0.615234375,0-1.0458984375,0.2529296875t-0.697265625,0.6767578125t-0.396484375,0.9501953125t-0.1298828125,1.0869140625q0,1.3125,0.451171875,2.6455078125t1.12109375,2.65234375t1.4560546875,2.6044921875t1.4560546875,2.501953125t1.12109375,2.37890625t0.451171875,2.201171875q0,0.9296875-0.4375,1.572265625t-1.107421875,1.0458984375t-1.4833984375,0.587890625t-1.5927734375,0.1845703125q-0.833984375,0-1.708984375-0.3349609375t-1.572265625-0.9228515625t-1.1484375-1.3740234375t-0.451171875-1.7021484375z M118.32779296875,24.333984375q0-0.806640625,0.0888671875-1.955078125t0.328125-2.392578125t0.642578125-2.474609375t1.0322265625-2.173828125t1.50390625-1.490234375q0.724609375-0.451171875,1.66796875-0.451171875q0.19140625,0,0.396484375,0.02734375q2.37890625,0.21875,3.6572265625,1.0869140625t1.8662109375,2.201171875t0.68359375,3.03515625t0.095703125,3.5888671875q0,1.517578125-0.2802734375,3.3017578125t-0.9912109375,3.3291015625t-1.9619140625,2.5771484375t-3.1787109375,1.0322265625q-1.17578125,0-2.0576171875-0.4306640625t-1.4970703125-1.1484375t-1.01171875-1.66796875t-0.6015625-1.96875t-0.2939453125-2.0576171875t-0.0888671875-1.96875z M121.10318359375,23.71875q0,0.587890625,0.013671875,1.4423828125t0.1162109375,1.7978515625t0.2666015625,1.8798828125t0.4853515625,1.7021484375t0.8134765625,1.2578125t1.189453125,0.51953125l0.068359375,0q0.62890625,0,1.12109375-0.478515625q0.51953125-0.505859375,0.9228515625-1.216796875t0.697265625-1.4970703125t0.5263671875-1.3466796875l-0.0546875,0.123046875q0.396484375-1.2578125,0.533203125-2.5771484375t0.13671875-2.6044921875q0-0.615234375-0.08203125-1.4833984375t-0.2666015625-1.8115234375t-0.478515625-1.8662109375t-0.7451171875-1.6064453125t-1.052734375-1.0390625q-0.4375-0.259765625-0.970703125-0.2734375q-0.205078125,0-0.41015625,0.041015625q-0.697265625,0.13671875-1.189453125,0.68359375t-0.7998046875,1.3466796875t-0.4716796875,1.75t-0.2529296875,1.9140625t-0.1025390625,1.845703125t-0.013671875,1.4970703125z M127.26919921875,27.9296875l0-0.02734375l0,0.02734375z M133.14359375,26.97265625l0-2.16015625q0-2.2421875,0.0751953125-4.4501953125t0.1298828125-4.4501953125q0-0.423828125-0.02734375-0.943359375q-0.013671875-0.150390625-0.013671875-0.287109375q0-0.341796875,0.0546875-0.669921875q0.068359375-0.4375,0.3349609375-0.751953125t0.8818359375-0.314453125q0.505859375,0,0.7724609375,0.109375t0.3759765625,0.3212890625t0.123046875,0.533203125t0.013671875,0.7451171875q0,2.26953125-0.0546875,4.552734375q-0.041015625,1.517578125-0.041015625,3.03515625q0,0.765625,0.013671875,1.53125q0.02734375,2.26953125,0.2119140625,4.5390625t0.6220703125,4.484375q1.3671875-0.0546875,2.734375-0.13671875t2.734375-0.08203125q0.13671875,0,0.3896484375,0.02734375t0.505859375,0.095703125t0.4306640625,0.177734375t0.177734375,0.314453125q0,0.13671875-0.123046875,0.232421875t-0.232421875,0.150390625l-0.02734375,0q-0.21875,0.109375-0.8681640625,0.2119140625t-1.4765625,0.1572265625t-1.736328125,0.095703125t-1.708984375,0.068359375t-1.3876953125,0.041015625t-0.724609375,0.013671875l-0.123046875,0q-0.328125,0-0.73828125-0.109375q-0.4921875-0.13671875-0.615234375-0.533203125q-0.24609375-1.01171875-0.3896484375-2.0986328125t-0.21875-2.2080078125t-0.0751953125-2.2421875z M145.56681640625,21.572265625l0-1.052734375l0-1.080078125q0.013671875-1.09375,0.0888671875-2.0986328125t0.2119140625-1.6748046875q0.08203125-0.369140625,0.4921875-0.451171875t0.7109375-0.08203125q0.560546875,0,0.8271484375,0.13671875t0.3486328125,0.3896484375t0.068359375,0.6015625t-0.013671875,0.7998046875q0,0.642578125-0.02734375,1.791015625t-0.041015625,2.54296875l0,0.697265625q0,1.052734375,0.02734375,2.173828125q0.041015625,1.50390625,0.1572265625,2.8779296875t0.3212890625,2.474609375t0.57421875,1.6884765625q0.587890625-0.533203125,1.17578125-1.4970703125t1.12109375-2.1669921875t1.0185546875-2.5361328125t0.8818359375-2.6044921875t0.6767578125-2.392578125t0.4169921875-1.900390625q0.21875-1.12109375,0.2939453125-2.283203125t0.0751953125-2.583984375q0.423828125-0.505859375,0.65625-0.6357421875t0.73828125-0.1298828125q0.24609375,0,0.4990234375,0.041015625t0.4853515625,0.19140625l0.19140625,0.30078125l0,0.341796875q0,2.48828125-0.2392578125,5.0517578125t-0.505859375,5.154296875t-0.505859375,5.1953125t-0.2392578125,5.1748046875q0,0.396484375,0.0341796875,0.8408203125t0.1435546875,0.8408203125l-0.0546875,0.1640625q-0.19140625,0.314453125-0.62890625,0.396484375t-0.751953125,0.08203125q-0.669921875,0-1.0048828125-0.1982421875t-0.4443359375-0.546875t-0.095703125-0.806640625t0.013671875-0.9912109375q0-1.845703125,0.1640625-3.7529296875t0.396484375-3.7529296875q-0.21875,0.642578125-0.51953125,1.5517578125t-0.7041015625,1.818359375t-0.9365234375,1.66796875t-1.17578125,1.0869140625l0.02734375-0.02734375l-0.109375,0.0546875l0.02734375,0q-0.396484375,0.21875-0.7314453125,0.2939453125t-0.7861328125,0.0751953125q-0.90234375,0-1.4970703125-0.533203125t-0.9638671875-1.3740234375t-0.546875-1.88671875t-0.2529296875-2.0986328125t-0.0751953125-2.0029296875l0-1.5654296875q0-0.751953125-0.013671875-1.791015625z M150.43400390625,32.455078125q0.02734375,0,0.02734375-0.02734375l0.02734375,0q-0.02734375,0.02734375-0.0546875,0.02734375z M159.5076171875,14.544921875q0-0.19140625,0.2666015625-0.2939453125t0.3486328125-0.1025390625l0.505859375-0.08203125q0.505859375-0.08203125,1.025390625-0.1435546875t1.01171875-0.1162109375q1.736328125-0.21875,3.47265625-0.4306640625t3.5-0.2119140625q0.13671875,0,0.3759765625,0.013671875t0.478515625,0.0751953125t0.41015625,0.1708984375t0.1708984375,0.30078125q0,0.13671875-0.1298828125,0.2392578125t-0.3076171875,0.1572265625t-0.3623046875,0.068359375t-0.2939453125,0.013671875l-0.2392578125,0t-0.2392578125-0.0546875q-0.724609375,0-1.4287109375,0.068359375t-1.4287109375,0.123046875q0.19140625,0.21875,0.205078125,0.615234375t0.02734375,0.68359375q0,4.83984375,0.068359375,9.625t0.123046875,9.666015625l0,0.02734375q-0.451171875,0.396484375-0.7724609375,0.505859375t-0.6494140625,0.109375q-0.314453125,0-0.6357421875-0.1162109375t-0.7724609375-0.4990234375l0-0.02734375l0.109375-10.732421875q0-1.06640625-0.02734375-2.3515625t-0.02734375-2.6044921875t0.041015625-2.5498046875t0.21875-2.146484375q-0.806640625,0.08203125-1.708984375,0.24609375q-0.779296875,0.13671875-1.490234375,0.13671875l-0.24609375,0q-0.0546875,0-0.3212890625,0.013671875t-0.546875-0.013671875t-0.505859375-0.109375t-0.2255859375-0.2734375z M173.02458984375,33.80859375q0.0546875-2.857421875,0.2392578125-5.701171875t0.3212890625-5.701171875q0.02734375-1.09375,0.02734375-1.9892578125t0.0888671875-1.5517578125t0.328125-1.0048828125t0.7998046875-0.3486328125q0.478515625,0,0.724609375,0.13671875t0.3759765625,0.3486328125t0.1572265625,0.478515625t0.02734375,0.5400390625q0,0.396484375,0.02734375,0.7861328125t0.02734375,0.7861328125q0,2.884765625-0.1572265625,5.755859375t-0.1572265625,5.783203125q0,0.423828125,0.013671875,0.8544921875t0.013671875,0.8818359375q0,0.1640625-0.150390625,0.2734375t-0.3759765625,0.1845703125t-0.478515625,0.1025390625t-0.4169921875,0.02734375q-0.19140625,0-0.4306640625-0.02734375t-0.46484375-0.1162109375t-0.3828125-0.2119140625t-0.1572265625-0.287109375z M173.79021484375,15.26953125q0-0.13671875,0.041015625-0.3076171875t0.095703125-0.3076171875q0.02734375-0.1640625,0.08203125-0.560546875t0.1982421875-0.7724609375t0.396484375-0.669921875t0.7177734375-0.2939453125l0.259765625,0q0.21875,0.0546875,0.4443359375,0.13671875t0.2255859375,0.396484375q0,0.13671875-0.013671875,0.259765625t-0.041015625,0.2734375q-0.109375,0.806640625-0.2119140625,1.271484375t-0.2392578125,0.7041015625t-0.3486328125,0.3076171875t-0.5400390625,0.095703125q-0.109375,0-0.2939453125-0.013671875t-0.35546875-0.068359375t-0.2939453125-0.1708984375t-0.123046875-0.2802734375z M179.049375,24.333984375q0-0.806640625,0.0888671875-1.955078125t0.328125-2.392578125t0.642578125-2.474609375t1.0322265625-2.173828125t1.50390625-1.490234375q0.724609375-0.451171875,1.66796875-0.451171875q0.19140625,0,0.396484375,0.02734375q2.37890625,0.21875,3.6572265625,1.0869140625t1.8662109375,2.201171875t0.68359375,3.03515625t0.095703125,3.5888671875q0,1.517578125-0.2802734375,3.3017578125t-0.9912109375,3.3291015625t-1.9619140625,2.5771484375t-3.1787109375,1.0322265625q-1.17578125,0-2.0576171875-0.4306640625t-1.4970703125-1.1484375t-1.01171875-1.66796875t-0.6015625-1.96875t-0.2939453125-2.0576171875t-0.0888671875-1.96875z M181.824765625,23.71875q0,0.587890625,0.013671875,1.4423828125t0.1162109375,1.7978515625t0.2666015625,1.8798828125t0.4853515625,1.7021484375t0.8134765625,1.2578125t1.189453125,0.51953125l0.068359375,0q0.62890625,0,1.12109375-0.478515625q0.51953125-0.505859375,0.9228515625-1.216796875t0.697265625-1.4970703125t0.5263671875-1.3466796875l-0.0546875,0.123046875q0.396484375-1.2578125,0.533203125-2.5771484375t0.13671875-2.6044921875q0-0.615234375-0.08203125-1.4833984375t-0.2666015625-1.8115234375t-0.478515625-1.8662109375t-0.7451171875-1.6064453125t-1.052734375-1.0390625q-0.4375-0.259765625-0.970703125-0.2734375q-0.205078125,0-0.41015625,0.041015625q-0.697265625,0.13671875-1.189453125,0.68359375t-0.7998046875,1.3466796875t-0.4716796875,1.75t-0.2529296875,1.9140625t-0.1025390625,1.845703125t-0.013671875,1.4970703125z M187.99078125,27.9296875l0-0.02734375l0,0.02734375z M193.83783203125,16.103515625q0-0.1640625,0.1572265625-0.24609375t0.341796875-0.123046875t0.3349609375-0.041015625l0.150390625,0q0.478515625,0,0.6904296875,0.21875t0.5126953125,0.560546875q2.05078125,2.966796875,3.759765625,6.1044921875t3.294921875,6.3505859375q0.13671875-3.74609375,0.2802734375-7.5400390625t0.3623046875-7.5263671875q0-0.1640625,0.1572265625-0.2734375t0.35546875-0.1640625t0.4033203125-0.068359375t0.314453125-0.013671875q0.1640625,0,0.3623046875,0.013671875t0.396484375,0.08203125t0.328125,0.1640625t0.1298828125,0.259765625q0.0546875,0.587890625,0.0615234375,1.1826171875t0.0068359375,1.1826171875q0,4.40234375-0.19140625,8.626953125t-0.19140625,8.53125l0,0.984375q0,0.0546875-0.0546875,0.1640625q0.02734375,0.109375,0.08203125,0.2392578125t0.0546875,0.1845703125q0,0.21875-0.2255859375,0.328125t-0.4921875,0.1708984375t-0.4716796875,0.0615234375t-0.150390625,0q-0.697265625,0-1.17578125-0.3828125t-0.478515625-0.916015625q-1.01171875-2.26953125-2.0166015625-4.5048828125t-2.0986328125-4.4501953125q-0.697265625-1.39453125-1.4013671875-2.7958984375t-1.5107421875-2.7138671875q0.02734375,0.02734375,0.02734375,0.08203125q0.13671875,1.3671875,0.2939453125,2.7275390625t0.2392578125,2.7275390625q0.0546875,1.17578125,0.123046875,2.37890625t0.21875,2.37890625q0,0.451171875-0.2802734375,0.57421875t-0.6494140625,0.123046875q-0.314453125,0-0.5947265625-0.08203125t-0.3349609375-0.41015625q0-1.2578125-0.095703125-2.6728515625t-0.177734375-2.8505859375q-0.13671875-1.900390625-0.3623046875-3.8623046875t-0.2255859375-3.8349609375q0-0.08203125,0.013671875-0.1708984375t0.013671875-0.1982421875q-0.08203125-0.13671875-0.1845703125-0.287109375t-0.1025390625-0.2734375z"/><path fill="#" d=""/></svg>
